<svg xmlns="http://www.w3.org/2000/svg" width="720" height="520" viewBox="0 0 240 173.33" preserveAspectRatio="none">
<defs><linearGradient id="g" x1="0" y1="0" x2="1" y2="1"><stop offset="0" stop-color="#174233"/><stop offset="1" stop-color="#111" stop-opacity="0.18"/></linearGradient></defs>
<rect width="240" height="173.33" fill="url(#g)"/>
<path d="M0 0 l12 -12 l12 12 l-12 12z" fill="none" stroke="#8eb6a2" stroke-width="2" opacity="0.32"/><path d="M0 35 l12 -12 l12 12 l-12 12z" fill="none" stroke="#8eb6a2" stroke-width="2" opacity="0.32"/><path d="M0 70 l12 -12 l12 12 l-12 12z" fill="none" stroke="#8eb6a2" stroke-width="2" opacity="0.32"/><path d="M0 105 l12 -12 l12 12 l-12 12z" fill="none" stroke="#8eb6a2" stroke-width="2" opacity="0.32"/><path d="M0 140 l12 -12 l12 12 l-12 12z" fill="none" stroke="#8eb6a2" stroke-width="2" opacity="0.32"/><path d="M0 175 l12 -12 l12 12 l-12 12z" fill="none" stroke="#8eb6a2" stroke-width="2" opacity="0.32"/><path d="M0 210 l12 -12 l12 12 l-12 12z" fill="none" stroke="#8eb6a2" stroke-width="2" opacity="0.32"/><path d="M35 0 l12 -12 l12 12 l-12 12z" fill="none" stroke="#8eb6a2" stroke-width="2" opacity="0.32"/><path d="M35 35 l12 -12 l12 12 l-12 12z" fill="none" stroke="#8eb6a2" stroke-width="2" opacity="0.32"/><path d="M35 70 l12 -12 l12 12 l-12 12z" fill="none" stroke="#8eb6a2" stroke-width="2" opacity="0.32"/><path d="M35 105 l12 -12 l12 12 l-12 12z" fill="none" stroke="#8eb6a2" stroke-width="2" opacity="0.32"/><path d="M35 140 l12 -12 l12 12 l-12 12z" fill="none" stroke="#8eb6a2" stroke-width="2" opacity="0.32"/><path d="M35 175 l12 -12 l12 12 l-12 12z" fill="none" stroke="#8eb6a2" stroke-width="2" opacity="0.32"/><path d="M35 210 l12 -12 l12 12 l-12 12z" fill="none" stroke="#8eb6a2" stroke-width="2" opacity="0.32"/><path d="M70 0 l12 -12 l12 12 l-12 12z" fill="none" stroke="#8eb6a2" stroke-width="2" opacity="0.32"/><path d="M70 35 l12 -12 l12 12 l-12 12z" fill="none" stroke="#8eb6a2" stroke-width="2" opacity="0.32"/><path d="M70 70 l12 -12 l12 12 l-12 12z" fill="none" stroke="#8eb6a2" stroke-width="2" opacity="0.32"/><path d="M70 105 l12 -12 l12 12 l-12 12z" fill="none" stroke="#8eb6a2" stroke-width="2" opacity="0.32"/><path d="M70 140 l12 -12 l12 12 l-12 12z" fill="none" stroke="#8eb6a2" stroke-width="2" opacity="0.32"/><path d="M70 175 l12 -12 l12 12 l-12 12z" fill="none" stroke="#8eb6a2" stroke-width="2" opacity="0.32"/><path d="M70 210 l12 -12 l12 12 l-12 12z" fill="none" stroke="#8eb6a2" stroke-width="2" opacity="0.32"/><path d="M105 0 l12 -12 l12 12 l-12 12z" fill="none" stroke="#8eb6a2" stroke-width="2" opacity="0.32"/><path d="M105 35 l12 -12 l12 12 l-12 12z" fill="none" stroke="#8eb6a2" stroke-width="2" opacity="0.32"/><path d="M105 70 l12 -12 l12 12 l-12 12z" fill="none" stroke="#8eb6a2" stroke-width="2" opacity="0.32"/><path d="M105 105 l12 -12 l12 12 l-12 12z" fill="none" stroke="#8eb6a2" stroke-width="2" opacity="0.32"/><path d="M105 140 l12 -12 l12 12 l-12 12z" fill="none" stroke="#8eb6a2" stroke-width="2" opacity="0.32"/><path d="M105 175 l12 -12 l12 12 l-12 12z" fill="none" stroke="#8eb6a2" stroke-width="2" opacity="0.32"/><path d="M105 210 l12 -12 l12 12 l-12 12z" fill="none" stroke="#8eb6a2" stroke-width="2" opacity="0.32"/><path d="M140 0 l12 -12 l12 12 l-12 12z" fill="none" stroke="#8eb6a2" stroke-width="2" opacity="0.32"/><path d="M140 35 l12 -12 l12 12 l-12 12z" fill="none" stroke="#8eb6a2" stroke-width="2" opacity="0.32"/><path d="M140 70 l12 -12 l12 12 l-12 12z" fill="none" stroke="#8eb6a2" stroke-width="2" opacity="0.32"/><path d="M140 105 l12 -12 l12 12 l-12 12z" fill="none" stroke="#8eb6a2" stroke-width="2" opacity="0.32"/><path d="M140 140 l12 -12 l12 12 l-12 12z" fill="none" stroke="#8eb6a2" stroke-width="2" opacity="0.32"/><path d="M140 175 l12 -12 l12 12 l-12 12z" fill="none" stroke="#8eb6a2" stroke-width="2" opacity="0.32"/><path d="M140 210 l12 -12 l12 12 l-12 12z" fill="none" stroke="#8eb6a2" stroke-width="2" opacity="0.32"/><path d="M175 0 l12 -12 l12 12 l-12 12z" fill="none" stroke="#8eb6a2" stroke-width="2" opacity="0.32"/><path d="M175 35 l12 -12 l12 12 l-12 12z" fill="none" stroke="#8eb6a2" stroke-width="2" opacity="0.32"/><path d="M175 70 l12 -12 l12 12 l-12 12z" fill="none" stroke="#8eb6a2" stroke-width="2" opacity="0.32"/><path d="M175 105 l12 -12 l12 12 l-12 12z" fill="none" stroke="#8eb6a2" stroke-width="2" opacity="0.32"/><path d="M175 140 l12 -12 l12 12 l-12 12z" fill="none" stroke="#8eb6a2" stroke-width="2" opacity="0.32"/><path d="M175 175 l12 -12 l12 12 l-12 12z" fill="none" stroke="#8eb6a2" stroke-width="2" opacity="0.32"/><path d="M175 210 l12 -12 l12 12 l-12 12z" fill="none" stroke="#8eb6a2" stroke-width="2" opacity="0.32"/><path d="M210 0 l12 -12 l12 12 l-12 12z" fill="none" stroke="#8eb6a2" stroke-width="2" opacity="0.32"/><path d="M210 35 l12 -12 l12 12 l-12 12z" fill="none" stroke="#8eb6a2" stroke-width="2" opacity="0.32"/><path d="M210 70 l12 -12 l12 12 l-12 12z" fill="none" stroke="#8eb6a2" stroke-width="2" opacity="0.32"/><path d="M210 105 l12 -12 l12 12 l-12 12z" fill="none" stroke="#8eb6a2" stroke-width="2" opacity="0.32"/><path d="M210 140 l12 -12 l12 12 l-12 12z" fill="none" stroke="#8eb6a2" stroke-width="2" opacity="0.32"/><path d="M210 175 l12 -12 l12 12 l-12 12z" fill="none" stroke="#8eb6a2" stroke-width="2" opacity="0.32"/><path d="M210 210 l12 -12 l12 12 l-12 12z" fill="none" stroke="#8eb6a2" stroke-width="2" opacity="0.32"/>

<rect x="0" y="0" width="240" height="173.33" fill="none" stroke="#000" stroke-opacity="0.08"/>
<text x="12" y="158" font-family="Roboto, Arial" font-size="10" fill="#fff" opacity="0.68">Mock groen voering</text>
</svg>