<svg xmlns="http://www.w3.org/2000/svg" width="720" height="520" viewBox="0 0 240 173.33" preserveAspectRatio="none">
<defs><linearGradient id="g" x1="0" y1="0" x2="1" y2="1"><stop offset="0" stop-color="#b6862b"/><stop offset="1" stop-color="#111" stop-opacity="0.18"/></linearGradient></defs>
<rect width="240" height="173.33" fill="url(#g)"/>
<ellipse cx="0" cy="0" rx="22" ry="9" fill="none" stroke="#fff1a6" stroke-width="3" opacity="0.45" transform="rotate(0 0 0)"/><ellipse cx="47" cy="83" rx="22" ry="9" fill="none" stroke="#fff1a6" stroke-width="3" opacity="0.45" transform="rotate(17 47 83)"/><ellipse cx="94" cy="166" rx="22" ry="9" fill="none" stroke="#fff1a6" stroke-width="3" opacity="0.45" transform="rotate(34 94 166)"/><ellipse cx="141" cy="29" rx="22" ry="9" fill="none" stroke="#fff1a6" stroke-width="3" opacity="0.45" transform="rotate(51 141 29)"/><ellipse cx="188" cy="112" rx="22" ry="9" fill="none" stroke="#fff1a6" stroke-width="3" opacity="0.45" transform="rotate(68 188 112)"/><ellipse cx="235" cy="195" rx="22" ry="9" fill="none" stroke="#fff1a6" stroke-width="3" opacity="0.45" transform="rotate(85 235 195)"/><ellipse cx="42" cy="58" rx="22" ry="9" fill="none" stroke="#fff1a6" stroke-width="3" opacity="0.45" transform="rotate(102 42 58)"/><ellipse cx="89" cy="141" rx="22" ry="9" fill="none" stroke="#fff1a6" stroke-width="3" opacity="0.45" transform="rotate(119 89 141)"/><ellipse cx="136" cy="4" rx="22" ry="9" fill="none" stroke="#fff1a6" stroke-width="3" opacity="0.45" transform="rotate(136 136 4)"/><ellipse cx="183" cy="87" rx="22" ry="9" fill="none" stroke="#fff1a6" stroke-width="3" opacity="0.45" transform="rotate(153 183 87)"/><ellipse cx="230" cy="170" rx="22" ry="9" fill="none" stroke="#fff1a6" stroke-width="3" opacity="0.45" transform="rotate(170 230 170)"/><ellipse cx="37" cy="33" rx="22" ry="9" fill="none" stroke="#fff1a6" stroke-width="3" opacity="0.45" transform="rotate(187 37 33)"/>

<rect x="0" y="0" width="240" height="173.33" fill="none" stroke="#000" stroke-opacity="0.08"/>
<text x="12" y="158" font-family="Roboto, Arial" font-size="10" fill="#fff" opacity="0.68">Mock goud paisley voering</text>
</svg>