<svg xmlns="http://www.w3.org/2000/svg" width="720" height="520" viewBox="0 0 240 173.33" preserveAspectRatio="none">
<defs><linearGradient id="g" x1="0" y1="0" x2="1" y2="1"><stop offset="0" stop-color="#123c8c"/><stop offset="1" stop-color="#111" stop-opacity="0.18"/></linearGradient></defs>
<rect width="240" height="173.33" fill="url(#g)"/>
<circle cx="18" cy="18" r="4" fill="#9ab6ff" opacity="0.42"/><circle cx="18" cy="52" r="4" fill="#9ab6ff" opacity="0.42"/><circle cx="18" cy="86" r="4" fill="#9ab6ff" opacity="0.42"/><circle cx="18" cy="120" r="4" fill="#9ab6ff" opacity="0.42"/><circle cx="18" cy="154" r="4" fill="#9ab6ff" opacity="0.42"/><circle cx="18" cy="188" r="4" fill="#9ab6ff" opacity="0.42"/><circle cx="52" cy="18" r="4" fill="#9ab6ff" opacity="0.42"/><circle cx="52" cy="52" r="4" fill="#9ab6ff" opacity="0.42"/><circle cx="52" cy="86" r="4" fill="#9ab6ff" opacity="0.42"/><circle cx="52" cy="120" r="4" fill="#9ab6ff" opacity="0.42"/><circle cx="52" cy="154" r="4" fill="#9ab6ff" opacity="0.42"/><circle cx="52" cy="188" r="4" fill="#9ab6ff" opacity="0.42"/><circle cx="86" cy="18" r="4" fill="#9ab6ff" opacity="0.42"/><circle cx="86" cy="52" r="4" fill="#9ab6ff" opacity="0.42"/><circle cx="86" cy="86" r="4" fill="#9ab6ff" opacity="0.42"/><circle cx="86" cy="120" r="4" fill="#9ab6ff" opacity="0.42"/><circle cx="86" cy="154" r="4" fill="#9ab6ff" opacity="0.42"/><circle cx="86" cy="188" r="4" fill="#9ab6ff" opacity="0.42"/><circle cx="120" cy="18" r="4" fill="#9ab6ff" opacity="0.42"/><circle cx="120" cy="52" r="4" fill="#9ab6ff" opacity="0.42"/><circle cx="120" cy="86" r="4" fill="#9ab6ff" opacity="0.42"/><circle cx="120" cy="120" r="4" fill="#9ab6ff" opacity="0.42"/><circle cx="120" cy="154" r="4" fill="#9ab6ff" opacity="0.42"/><circle cx="120" cy="188" r="4" fill="#9ab6ff" opacity="0.42"/><circle cx="154" cy="18" r="4" fill="#9ab6ff" opacity="0.42"/><circle cx="154" cy="52" r="4" fill="#9ab6ff" opacity="0.42"/><circle cx="154" cy="86" r="4" fill="#9ab6ff" opacity="0.42"/><circle cx="154" cy="120" r="4" fill="#9ab6ff" opacity="0.42"/><circle cx="154" cy="154" r="4" fill="#9ab6ff" opacity="0.42"/><circle cx="154" cy="188" r="4" fill="#9ab6ff" opacity="0.42"/><circle cx="188" cy="18" r="4" fill="#9ab6ff" opacity="0.42"/><circle cx="188" cy="52" r="4" fill="#9ab6ff" opacity="0.42"/><circle cx="188" cy="86" r="4" fill="#9ab6ff" opacity="0.42"/><circle cx="188" cy="120" r="4" fill="#9ab6ff" opacity="0.42"/><circle cx="188" cy="154" r="4" fill="#9ab6ff" opacity="0.42"/><circle cx="188" cy="188" r="4" fill="#9ab6ff" opacity="0.42"/><circle cx="222" cy="18" r="4" fill="#9ab6ff" opacity="0.42"/><circle cx="222" cy="52" r="4" fill="#9ab6ff" opacity="0.42"/><circle cx="222" cy="86" r="4" fill="#9ab6ff" opacity="0.42"/><circle cx="222" cy="120" r="4" fill="#9ab6ff" opacity="0.42"/><circle cx="222" cy="154" r="4" fill="#9ab6ff" opacity="0.42"/><circle cx="222" cy="188" r="4" fill="#9ab6ff" opacity="0.42"/>
<line x1="0" y1="-50" x2="240" y2="-32" stroke="#fff" stroke-opacity="0.08" stroke-width="1"/><line x1="0" y1="-38" x2="240" y2="-20" stroke="#fff" stroke-opacity="0.08" stroke-width="1"/><line x1="0" y1="-26" x2="240" y2="-8" stroke="#fff" stroke-opacity="0.08" stroke-width="1"/><line x1="0" y1="-14" x2="240" y2="4" stroke="#fff" stroke-opacity="0.08" stroke-width="1"/><line x1="0" y1="-2" x2="240" y2="16" stroke="#fff" stroke-opacity="0.08" stroke-width="1"/><line x1="0" y1="10" x2="240" y2="28" stroke="#fff" stroke-opacity="0.08" stroke-width="1"/><line x1="0" y1="22" x2="240" y2="40" stroke="#fff" stroke-opacity="0.08" stroke-width="1"/><line x1="0" y1="34" x2="240" y2="52" stroke="#fff" stroke-opacity="0.08" stroke-width="1"/><line x1="0" y1="46" x2="240" y2="64" stroke="#fff" stroke-opacity="0.08" stroke-width="1"/><line x1="0" y1="58" x2="240" y2="76" stroke="#fff" stroke-opacity="0.08" stroke-width="1"/><line x1="0" y1="70" x2="240" y2="88" stroke="#fff" stroke-opacity="0.08" stroke-width="1"/><line x1="0" y1="82" x2="240" y2="100" stroke="#fff" stroke-opacity="0.08" stroke-width="1"/><line x1="0" y1="94" x2="240" y2="112" stroke="#fff" stroke-opacity="0.08" stroke-width="1"/><line x1="0" y1="106" x2="240" y2="124" stroke="#fff" stroke-opacity="0.08" stroke-width="1"/><line x1="0" y1="118" x2="240" y2="136" stroke="#fff" stroke-opacity="0.08" stroke-width="1"/><line x1="0" y1="130" x2="240" y2="148" stroke="#fff" stroke-opacity="0.08" stroke-width="1"/><line x1="0" y1="142" x2="240" y2="160" stroke="#fff" stroke-opacity="0.08" stroke-width="1"/><line x1="0" y1="154" x2="240" y2="172" stroke="#fff" stroke-opacity="0.08" stroke-width="1"/><line x1="0" y1="166" x2="240" y2="184" stroke="#fff" stroke-opacity="0.08" stroke-width="1"/><line x1="0" y1="178" x2="240" y2="196" stroke="#fff" stroke-opacity="0.08" stroke-width="1"/><line x1="0" y1="190" x2="240" y2="208" stroke="#fff" stroke-opacity="0.08" stroke-width="1"/><line x1="0" y1="202" x2="240" y2="220" stroke="#fff" stroke-opacity="0.08" stroke-width="1"/><line x1="0" y1="214" x2="240" y2="232" stroke="#fff" stroke-opacity="0.08" stroke-width="1"/><line x1="0" y1="226" x2="240" y2="244" stroke="#fff" stroke-opacity="0.08" stroke-width="1"/><line x1="0" y1="238" x2="240" y2="256" stroke="#fff" stroke-opacity="0.08" stroke-width="1"/>
<rect x="0" y="0" width="240" height="173.33" fill="none" stroke="#000" stroke-opacity="0.08"/>
<text x="12" y="158" font-family="Roboto, Arial" font-size="10" fill="#fff" opacity="0.68">Mock royal blue voering close-up</text>
</svg>