<svg xmlns="http://www.w3.org/2000/svg" width="720" height="520" viewBox="0 0 240 173.33" preserveAspectRatio="none">
<defs><linearGradient id="g" x1="0" y1="0" x2="1" y2="1"><stop offset="0" stop-color="#123c8c"/><stop offset="1" stop-color="#111" stop-opacity="0.18"/></linearGradient></defs>
<rect width="240" height="173.33" fill="url(#g)"/>
<circle cx="18" cy="18" r="4" fill="#9ab6ff" opacity="0.42"/><circle cx="18" cy="52" r="4" fill="#9ab6ff" opacity="0.42"/><circle cx="18" cy="86" r="4" fill="#9ab6ff" opacity="0.42"/><circle cx="18" cy="120" r="4" fill="#9ab6ff" opacity="0.42"/><circle cx="18" cy="154" r="4" fill="#9ab6ff" opacity="0.42"/><circle cx="18" cy="188" r="4" fill="#9ab6ff" opacity="0.42"/><circle cx="52" cy="18" r="4" fill="#9ab6ff" opacity="0.42"/><circle cx="52" cy="52" r="4" fill="#9ab6ff" opacity="0.42"/><circle cx="52" cy="86" r="4" fill="#9ab6ff" opacity="0.42"/><circle cx="52" cy="120" r="4" fill="#9ab6ff" opacity="0.42"/><circle cx="52" cy="154" r="4" fill="#9ab6ff" opacity="0.42"/><circle cx="52" cy="188" r="4" fill="#9ab6ff" opacity="0.42"/><circle cx="86" cy="18" r="4" fill="#9ab6ff" opacity="0.42"/><circle cx="86" cy="52" r="4" fill="#9ab6ff" opacity="0.42"/><circle cx="86" cy="86" r="4" fill="#9ab6ff" opacity="0.42"/><circle cx="86" cy="120" r="4" fill="#9ab6ff" opacity="0.42"/><circle cx="86" cy="154" r="4" fill="#9ab6ff" opacity="0.42"/><circle cx="86" cy="188" r="4" fill="#9ab6ff" opacity="0.42"/><circle cx="120" cy="18" r="4" fill="#9ab6ff" opacity="0.42"/><circle cx="120" cy="52" r="4" fill="#9ab6ff" opacity="0.42"/><circle cx="120" cy="86" r="4" fill="#9ab6ff" opacity="0.42"/><circle cx="120" cy="120" r="4" fill="#9ab6ff" opacity="0.42"/><circle cx="120" cy="154" r="4" fill="#9ab6ff" opacity="0.42"/><circle cx="120" cy="188" r="4" fill="#9ab6ff" opacity="0.42"/><circle cx="154" cy="18" r="4" fill="#9ab6ff" opacity="0.42"/><circle cx="154" cy="52" r="4" fill="#9ab6ff" opacity="0.42"/><circle cx="154" cy="86" r="4" fill="#9ab6ff" opacity="0.42"/><circle cx="154" cy="120" r="4" fill="#9ab6ff" opacity="0.42"/><circle cx="154" cy="154" r="4" fill="#9ab6ff" opacity="0.42"/><circle cx="154" cy="188" r="4" fill="#9ab6ff" opacity="0.42"/><circle cx="188" cy="18" r="4" fill="#9ab6ff" opacity="0.42"/><circle cx="188" cy="52" r="4" fill="#9ab6ff" opacity="0.42"/><circle cx="188" cy="86" r="4" fill="#9ab6ff" opacity="0.42"/><circle cx="188" cy="120" r="4" fill="#9ab6ff" opacity="0.42"/><circle cx="188" cy="154" r="4" fill="#9ab6ff" opacity="0.42"/><circle cx="188" cy="188" r="4" fill="#9ab6ff" opacity="0.42"/><circle cx="222" cy="18" r="4" fill="#9ab6ff" opacity="0.42"/><circle cx="222" cy="52" r="4" fill="#9ab6ff" opacity="0.42"/><circle cx="222" cy="86" r="4" fill="#9ab6ff" opacity="0.42"/><circle cx="222" cy="120" r="4" fill="#9ab6ff" opacity="0.42"/><circle cx="222" cy="154" r="4" fill="#9ab6ff" opacity="0.42"/><circle cx="222" cy="188" r="4" fill="#9ab6ff" opacity="0.42"/>

<rect x="0" y="0" width="240" height="173.33" fill="none" stroke="#000" stroke-opacity="0.08"/>
<text x="12" y="158" font-family="Roboto, Arial" font-size="10" fill="#fff" opacity="0.68">Mock royal blue voering</text>
</svg>