<svg xmlns="http://www.w3.org/2000/svg" width="720" height="520" viewBox="0 0 240 173.33" preserveAspectRatio="none">
<defs><linearGradient id="g" x1="0" y1="0" x2="1" y2="1"><stop offset="0" stop-color="#e7dcc5"/><stop offset="1" stop-color="#111" stop-opacity="0.18"/></linearGradient></defs>
<rect width="240" height="173.33" fill="url(#g)"/>
<rect x="-220" y="0" width="8" height="220" fill="#8f7e60" opacity="0.28"/><rect x="-192" y="0" width="8" height="220" fill="#8f7e60" opacity="0.28"/><rect x="-164" y="0" width="8" height="220" fill="#8f7e60" opacity="0.28"/><rect x="-136" y="0" width="8" height="220" fill="#8f7e60" opacity="0.28"/><rect x="-108" y="0" width="8" height="220" fill="#8f7e60" opacity="0.28"/><rect x="-80" y="0" width="8" height="220" fill="#8f7e60" opacity="0.28"/><rect x="-52" y="0" width="8" height="220" fill="#8f7e60" opacity="0.28"/><rect x="-24" y="0" width="8" height="220" fill="#8f7e60" opacity="0.28"/><rect x="4" y="0" width="8" height="220" fill="#8f7e60" opacity="0.28"/><rect x="32" y="0" width="8" height="220" fill="#8f7e60" opacity="0.28"/><rect x="60" y="0" width="8" height="220" fill="#8f7e60" opacity="0.28"/><rect x="88" y="0" width="8" height="220" fill="#8f7e60" opacity="0.28"/><rect x="116" y="0" width="8" height="220" fill="#8f7e60" opacity="0.28"/><rect x="144" y="0" width="8" height="220" fill="#8f7e60" opacity="0.28"/><rect x="172" y="0" width="8" height="220" fill="#8f7e60" opacity="0.28"/><rect x="200" y="0" width="8" height="220" fill="#8f7e60" opacity="0.28"/><rect x="228" y="0" width="8" height="220" fill="#8f7e60" opacity="0.28"/>

<rect x="0" y="0" width="240" height="173.33" fill="none" stroke="#000" stroke-opacity="0.08"/>
<text x="12" y="158" font-family="Roboto, Arial" font-size="10" fill="#fff" opacity="0.68">Mock ivoor streep voering</text>
</svg>